<svg width="61" height="64" viewBox="0 0 61 64" fill="none" xmlns="http://www.w3.org/2000/svg">
<mask id="mask0_129_169" style="mask-type:luminance" maskUnits="userSpaceOnUse" x="1" y="1" width="58" height="61">
<path d="M1.86157 1.94806H58.9524V61.6828H1.86157V1.94806Z" fill="white"/>
</mask>
<g mask="url(#mask0_129_169)">
<path d="M1.86157 1.94806H58.9524V61.6828H1.86157V1.94806Z" fill="#FFD600"/>
</g>
<path d="M39.1896 46.6608C40.287 48.5259 41.4795 50.3129 44.0057 50.3129C46.1277 50.3129 47.2409 49.2096 47.2409 47.683C47.2409 45.856 46.0895 45.2073 43.7552 44.1437L42.4754 43.5728C38.7818 41.9336 36.3255 39.8793 36.3255 35.5403C36.3255 31.5413 39.2513 28.4982 43.8233 28.4982C47.0791 28.4982 49.4183 29.6779 51.1056 32.7675L47.1188 35.4341C46.2418 33.7946 45.2934 33.1492 43.8233 33.1492C42.3231 33.1492 41.3733 34.1397 41.3733 35.4341C41.3733 37.0336 42.3247 37.6808 44.5211 38.6713L45.8009 39.2422C50.1541 41.1818 52.609 43.163 52.609 47.6166C52.609 52.4154 48.9868 55.0453 44.1246 55.0453C39.3686 55.0453 36.668 52.5481 35.1646 49.4568L39.1896 46.6608ZM20.8157 46.7968C21.6182 48.3003 22.8378 49.4568 24.5916 49.4568C26.2695 49.4568 27.2353 48.7631 27.2353 46.0668V28.4965H32.5209V46.9165C32.5209 52.5032 29.4238 55.0453 24.9009 55.0453C20.8141 55.0453 17.8644 52.1482 16.6624 49.4568L20.8157 46.7968Z" fill="#000001"/>
</svg>
