<svg width="90" height="90" viewBox="0 0 90 90" fill="none" xmlns="http://www.w3.org/2000/svg">
<g clip-path="url(#clip0_129_575)">
<path d="M45 21.3272C20.1473 21.3272 0 31.9268 0 45C0 58.0732 20.1473 68.6728 45 68.6728C69.852 68.6728 90 58.0732 90 45C90 31.9268 69.8527 21.3272 45 21.3272ZM40.7939 28.2249H45.9218V28.227L44.6948 34.5326H49.2623C52.1367 34.5326 54.1191 35.0339 55.2094 36.0366C56.3006 37.0397 56.6283 38.6639 56.1923 40.9092L54.0457 51.9483H48.837L50.8774 41.4513C51.1095 40.2579 51.0239 39.4439 50.6208 39.0094C50.2177 38.5758 49.3603 38.359 48.0487 38.359H43.9509L41.31 51.9469H36.1835L40.7939 28.2249ZM18.7945 34.5333H28.7318C31.722 34.5333 33.9028 35.318 35.2744 36.8874C36.6455 38.4563 37.0575 40.6467 36.5105 43.4588C36.285 44.6175 35.9041 45.6769 35.3679 46.6369C34.8316 47.5969 34.1309 48.4746 33.2655 49.2701C32.2334 50.2357 31.087 50.9239 29.8266 51.3345C28.5652 51.7451 26.9578 51.9502 25.0045 51.9497H20.5791L19.3521 58.2567H14.1841L18.7945 34.5333ZM59.13 34.5333H69.0652C72.0548 34.5333 74.2352 35.318 75.6063 36.8874H75.6077C76.9793 38.4563 77.3918 40.6467 76.8452 43.4588C76.6202 44.6175 76.2398 45.6769 75.7041 46.6369C75.1683 47.5969 74.467 48.4746 73.6003 49.2701C72.5691 50.2357 71.4223 50.9239 70.1599 51.3345C68.899 51.7451 67.2923 51.9502 65.34 51.9497H60.9138L59.6876 58.2567H54.5196L59.13 34.5333ZM23.2348 38.2774L21.3068 48.2056H24.4484C26.5324 48.206 28.0845 47.8139 29.1045 47.0292C30.1235 46.2441 30.8119 44.9335 31.1695 43.0974C31.5108 41.3339 31.3547 40.0896 30.7013 39.3645C30.0478 38.6393 28.7391 38.2767 26.775 38.2767L23.2348 38.2774ZM63.5681 38.2774L61.6388 48.2056H64.7817C66.8658 48.206 68.4178 47.8139 69.4378 47.0292C70.4564 46.2441 71.1443 44.9335 71.5015 43.0974C71.8437 41.3339 71.688 40.0896 71.0346 39.3645C70.3812 38.6393 69.0724 38.2767 67.1084 38.2767L63.5681 38.2774Z" fill="black"/>
</g>
<defs>
<clipPath id="clip0_129_575">
<rect width="90" height="90" fill="white"/>
</clipPath>
</defs>
</svg>
