<svg width="61" height="64" viewBox="0 0 61 64" fill="none" xmlns="http://www.w3.org/2000/svg">
<mask id="mask0_129_168" style="mask-type:luminance" maskUnits="userSpaceOnUse" x="1" y="35" width="25" height="13">
<path d="M1.25684 35.6671H25.3335V47.9414H1.25684V35.6671Z" fill="white"/>
</mask>
<g mask="url(#mask0_129_168)">
<path d="M1.29321 45.1544H3.21109V37.2298L6.18014 44.1407C6.53037 44.9738 7.01012 45.2732 7.95045 45.2732C8.89079 45.2732 9.35185 44.9771 9.70256 44.1407L12.6719 37.2298V45.1574H14.5901V37.2429C14.5901 36.4709 14.2944 36.0975 13.686 35.9047C12.2294 35.4285 11.2518 35.8404 10.8095 36.8698L7.89583 43.6902L5.07387 36.8668C4.6497 35.8374 3.65395 35.4256 2.19713 35.9017C1.58834 36.0947 1.29321 36.4681 1.29321 37.2399V45.1544ZM16.1842 38.7021H18.1015V43.0698C18.0836 43.3074 18.1741 43.8644 19.2248 43.8813C19.7609 43.8902 23.3619 43.8813 23.3955 43.8813V38.6804H25.317C25.3255 38.6804 25.3149 45.7718 25.3152 45.8021C25.3257 47.5511 23.2419 47.9311 22.2817 47.9604H16.226V46.6098L22.2925 46.6094C23.5267 46.4726 23.3812 45.8308 23.3812 45.6144V45.0878H19.3049C17.4084 45.0699 16.201 44.2031 16.1858 43.2065C16.1844 43.1172 16.2268 38.7448 16.1847 38.7017L16.1842 38.7021Z" fill="#00618A"/>
</g>
<path d="M26.7956 45.1551H32.3096C32.9549 45.1551 33.5822 45.0138 34.0805 44.7689C34.9105 44.3702 35.3161 43.8296 35.3161 43.1217V41.6549C35.3161 41.0756 34.8551 40.5354 33.9518 40.1751C33.4722 39.9816 32.8821 39.879 32.3105 39.879H29.9867C29.2124 39.879 28.8434 39.6343 28.7514 39.0941C28.7328 39.0298 28.7328 38.975 28.7328 38.9137V38.0002C28.7328 37.9489 28.7328 37.897 28.7514 37.8327C28.8434 37.421 29.0463 37.3049 29.7286 37.2377C29.784 37.2377 29.8576 37.2246 29.9134 37.2246H35.3904V35.8867H30.0055C29.2308 35.8867 28.8253 35.938 28.4562 36.0538C27.3113 36.4272 26.8132 37.0223 26.8132 38.0517V39.2228C26.8132 40.1239 27.7911 40.8959 29.4319 41.0759C29.6166 41.0887 29.8008 41.1015 29.9849 41.1015H31.9767C32.0507 41.1015 32.1246 41.1015 32.1797 41.1145C32.788 41.1661 33.0468 41.2819 33.2309 41.5133C33.3446 41.6322 33.3786 41.7454 33.3786 41.8703V43.0414C33.3786 43.183 33.2866 43.3634 33.1022 43.5175C32.9361 43.6722 32.6595 43.7748 32.2906 43.8008C32.2166 43.8008 32.1615 43.8136 32.0879 43.8136H26.7952V45.1518L26.7956 45.1551ZM47.2802 42.826C47.2802 44.203 48.2574 44.9752 50.2307 45.1296C50.4149 45.1445 50.5992 45.153 50.7838 45.1551H55.7815V43.8169H50.7469C49.6221 43.8169 49.1978 43.5208 49.1978 42.8129V35.8893H47.2799V42.8254L47.2802 42.826ZM36.5396 42.8956V38.1246C36.5396 36.9125 37.3526 36.1772 38.9603 35.9451C39.1319 35.9195 39.3045 35.9067 39.4779 35.9065H43.1184C43.298 35.9067 43.4766 35.9195 43.6545 35.9451C45.2623 36.1772 46.0751 36.9121 46.0751 38.1246V42.8956C46.0751 43.879 45.7298 44.4053 44.9339 44.7484L46.8231 46.5336H44.5961L43.0678 45.0893L41.5291 45.1914H39.4779C39.1269 45.1914 38.7573 45.1397 38.3506 45.0236C37.1282 44.6755 36.5399 44.0049 36.5399 42.8956H36.5396ZM38.6098 42.7767C38.6098 42.8413 38.6283 42.9055 38.6468 42.9831C38.7605 43.5377 39.2566 43.8472 40.0112 43.8472H41.7536L40.1533 42.3348H42.3801L43.773 43.6539C44.0303 43.5104 44.1994 43.2907 44.2562 43.0091C44.2747 42.9448 44.2747 42.8802 44.2747 42.8156V38.2409C44.2747 38.1896 44.2747 38.122 44.2562 38.0603C44.1425 37.5448 43.6462 37.2481 42.9072 37.2481H40.0162C39.1636 37.2481 38.6121 37.6349 38.6121 38.2409V42.7801L38.6098 42.7767Z" fill="#E48E00"/>
<path d="M57.4679 33.6686C56.2891 33.6353 55.3883 33.7498 54.6185 34.0896C54.3997 34.1863 54.0509 34.1886 54.0151 34.4757C54.1353 34.6076 54.1543 34.8046 54.2496 34.9668C54.4334 35.2782 54.7441 35.6957 55.0207 35.914C55.3231 36.1531 55.6347 36.4089 55.9596 36.6163C56.5367 36.9846 57.1808 37.195 57.7362 37.5637C58.0637 37.7809 58.3889 38.0546 58.7084 38.3003C58.8661 38.4217 58.9727 38.6104 59.1774 38.6863V38.6512C59.0694 38.5074 59.0418 38.3099 58.9429 38.1603L58.5072 37.7041C58.0808 37.109 57.5401 36.5923 56.965 36.1599C56.5065 35.8153 55.48 35.35 55.2887 34.7912L55.2552 34.756C55.5804 34.7174 55.961 34.5945 56.2615 34.5107C56.7655 34.3692 57.216 34.4057 57.7367 34.2652L58.4408 34.0545V33.9141C58.1777 33.6313 57.99 33.2574 57.7033 33.0018C56.9528 32.3324 56.1333 31.6644 55.2898 31.1065C54.822 30.7972 54.2439 30.5965 53.7479 30.3345C53.581 30.2463 53.2879 30.2006 53.1779 30.0535C52.9176 29.7061 52.7757 29.2651 52.5748 28.8633C52.1541 28.0155 51.7407 27.0889 51.3678 26.1966C51.1134 25.5882 50.9471 24.988 50.6304 24.4419C49.1082 21.8224 47.4695 20.2413 44.9318 18.6877C44.3917 18.3574 43.7416 18.2265 43.0542 18.056L41.9478 17.9858C41.7228 17.8876 41.4885 17.599 41.2771 17.4592C40.4362 16.9027 38.2796 15.6938 37.6569 17.2806C37.2637 18.2842 38.2443 19.2634 38.5955 19.7722C38.8415 20.1292 39.1571 20.5288 39.3328 20.9302C39.4484 21.1937 39.4687 21.4583 39.5676 21.7374C39.8111 22.4218 40.0231 23.1724 40.3384 23.8076C40.4977 24.129 40.6732 24.4676 40.8748 24.755C40.9985 24.9315 41.2103 25.0092 41.2436 25.2817C41.0366 25.5852 41.0246 26.0552 40.9081 26.4397C40.3843 28.1689 40.5817 30.3181 41.3438 31.598C41.5778 31.9908 42.1283 32.8333 42.8859 32.5103C43.5482 32.2277 43.3977 31.3528 43.59 30.5805C43.6326 30.4049 43.6065 30.277 43.6906 30.1595V30.1946L44.2941 31.4577C44.7405 32.2104 45.5334 32.9973 46.2049 33.5285C46.5531 33.8036 46.8303 34.2798 47.2776 34.4408V34.4057H47.2442C47.1568 34.2629 47.0205 34.2042 46.9087 34.0902C46.6463 33.8209 46.3544 33.4862 46.1375 33.1779C45.5264 32.3097 44.9869 31.3601 44.4951 30.3707C44.2603 29.8986 44.0559 29.3776 43.8584 28.897C43.7823 28.7116 43.7831 28.4316 43.6239 28.3355C43.407 28.6879 43.0875 28.9724 42.9198 29.3882C42.6514 30.053 42.6168 30.8634 42.5175 31.7043C42.4588 31.7262 42.4849 31.7111 42.4505 31.7395C41.9838 31.6215 41.8194 31.1184 41.646 30.6867C41.2071 29.5948 41.1259 27.8376 41.5119 26.5813C41.6114 26.2564 42.0632 25.2323 41.8805 24.932C41.7933 24.6324 41.5053 24.456 41.3441 24.2299C41.1452 23.9472 40.9456 23.574 40.8078 23.2473C40.4484 22.3965 40.2807 21.4414 39.9026 20.5806C39.722 20.1694 39.4166 19.7534 39.1653 19.3905C38.8874 18.9858 38.5761 18.6871 38.361 18.2003C38.2842 18.0262 38.1801 17.7481 38.2938 17.5687C38.2992 17.5428 38.3081 17.5183 38.3201 17.4953C38.3323 17.4721 38.3472 17.4512 38.3651 17.4325C38.3828 17.4139 38.4029 17.3982 38.4249 17.3854C38.4471 17.3728 38.4705 17.3636 38.4951 17.3579C38.6895 17.2012 39.2313 17.4099 39.4337 17.4984C39.9709 17.7323 40.4201 17.9548 40.8754 18.2706C41.0943 18.4193 41.3151 18.7156 41.5792 18.7971H41.8805C42.3524 18.9109 42.8812 18.8328 43.3217 18.9727C44.1011 19.2205 44.7992 19.6065 45.4337 20.0253C47.3661 21.3024 48.9456 23.1204 50.0264 25.2918C50.2004 25.6408 50.2755 25.9743 50.4286 26.3444C50.7376 27.0883 51.1268 27.8598 51.4343 28.59C51.7413 29.3189 52.0398 30.0538 52.4736 30.6601C52.7016 30.9786 53.5821 31.15 53.982 31.3266C54.2626 31.4507 54.7219 31.5803 54.9878 31.7477C55.4952 32.0681 55.987 32.4498 56.4631 32.801C56.7009 32.9765 57.4324 33.3613 57.4687 33.6781L57.4679 33.6686Z" fill="#00618A"/>
<path fill-rule="evenodd" clip-rule="evenodd" d="M42.4849 20.3001C42.239 20.2955 42.0653 20.3281 41.8813 20.3704V20.4055H41.9149C42.0321 20.6578 42.239 20.82 42.3841 21.0372L42.7194 21.7739L42.753 21.7388C42.9604 21.5855 43.0557 21.3407 43.0543 20.9666C42.971 20.875 42.9588 20.7602 42.8866 20.6507C42.7908 20.5049 42.6022 20.4222 42.4843 20.2996L42.4849 20.3001Z" fill="#00618A"/>
<path fill-rule="evenodd" clip-rule="evenodd" d="M56.6832 43.7789C56.6832 44.6626 57.3504 45.2583 58.0965 45.2583C58.8427 45.2583 59.5098 44.6626 59.5098 43.7789C59.5098 42.8953 58.8427 42.2996 58.0965 42.2996C57.3504 42.2996 56.6832 42.8953 56.6832 43.7789ZM59.1933 43.7789C59.1933 44.4496 58.7034 44.9507 58.096 44.9507C57.482 44.9507 56.9988 44.4496 56.9988 43.7789C56.9988 43.1083 57.4814 42.6072 58.096 42.6072C58.7029 42.6072 59.1933 43.1083 59.1933 43.7789ZM58.4768 44.6233H58.7933L58.3299 43.8818C58.5786 43.8542 58.7669 43.7278 58.7669 43.4201C58.7669 43.0767 58.5593 42.9351 58.1602 42.9351H57.5306V44.6237H57.802V43.8938H58.0545L58.4767 44.6237L58.4768 44.6233ZM57.802 43.6564V43.1713H58.1147C58.2768 43.1713 58.4729 43.2029 58.4729 43.4004C58.4729 43.637 58.2958 43.657 58.0921 43.657H57.802V43.6564Z" fill="#E48E00"/>
</svg>
