<svg width="61" height="61" viewBox="0 0 61 61" fill="none" xmlns="http://www.w3.org/2000/svg">
<mask id="mask0_129_167" style="mask-type:luminance" maskUnits="userSpaceOnUse" x="4" y="1" width="53" height="59">
<path d="M4.58704 1.55884H56.2059V59.2273H4.58704V1.55884Z" fill="white"/>
</mask>
<g mask="url(#mask0_129_167)">
<path d="M56.1982 1.55872H4.59485L9.14801 53.1568L30.3965 59.2271L51.645 53.1568L56.1982 1.55872Z" fill="#0277BD"/>
</g>
<path d="M30.3971 6.11255V54.5236L47.3958 49.6672L51.1902 6.11255H30.3971Z" fill="#039BE5"/>
<path d="M44.2086 13.7003H30.3971V19.7706H37.8341L37.3788 25.8409H30.3971V31.9113H37.0752L36.6199 38.7405L30.3971 40.865V47.239L42.3873 43.2932L43.4497 25.8409L44.2086 13.7003Z" fill="white"/>
<path d="M30.397 13.7003V19.7706H16.8891L16.4337 13.7003H30.397ZM23.4154 25.8409L23.7189 31.9113H30.397V25.8409H23.4154ZM24.0224 34.9464H17.9515L18.4069 43.2932L30.397 47.239V40.865L24.1743 38.7405L24.0224 34.9464Z" fill="#EEEEEE"/>
</svg>
