<svg width="61" height="61" viewBox="0 0 61 61" fill="none" xmlns="http://www.w3.org/2000/svg">
<mask id="mask0_129_166" style="mask-type:luminance" maskUnits="userSpaceOnUse" x="2" y="2" width="41" height="44">
<path d="M2.47241 2.48737H42.1948V45.1142H2.47241V2.48737Z" fill="white"/>
</mask>
<g mask="url(#mask0_129_166)">
<path d="M31.1314 2.48747C28.8468 2.49476 27.263 2.696 25.3486 3.02644C19.6953 4.01047 18.6654 6.07718 18.6654 9.88571V15.7065H31.8879V18.6442H11.7721C7.89927 18.6442 4.50985 20.4683 3.43588 24.841C2.22242 29.8598 2.16795 33.003 3.43588 38.2437C4.39822 42.1521 6.51829 45.0823 10.3924 45.0823H15.7285V37.5856C15.7285 33.2293 19.6748 28.9256 24.1969 28.9256H34.8278C38.5345 28.9256 42.1736 26.1908 42.1736 22.4967V9.88571C42.1736 6.30328 39.5893 3.6243 35.9767 3.02359C36.0663 3.01472 33.3968 2.47861 31.1314 2.48747ZM23.809 8.36255C25.0151 8.36255 26.0128 9.35688 26.0128 10.5688C26.0128 11.7922 25.0151 12.7689 23.809 12.7689C22.5792 12.7689 21.6051 11.7936 21.6051 10.5688C21.6051 9.36131 22.5792 8.36255 23.809 8.36255Z" fill="#0277BD"/>
</g>
<mask id="mask1_129_166" style="mask-type:luminance" maskUnits="userSpaceOnUse" x="18" y="15" width="41" height="44">
<path d="M18.73 15.6866H58.4524V58.3008H18.73V15.6866Z" fill="white"/>
</mask>
<g mask="url(#mask1_129_166)">
<path d="M29.7923 58.3012C32.0768 58.2938 33.6606 58.0925 35.575 57.7621C41.2284 56.778 42.2582 54.7115 42.2582 50.9028V45.082H29.0357V42.1445H49.1531C53.0259 42.1445 56.4152 40.3202 57.4892 35.9477C58.7028 30.9287 58.7571 27.7855 57.4892 22.5449C56.5254 18.6364 54.4055 15.7062 50.5313 15.7062H45.1951V23.2029C45.1951 27.5594 41.249 31.8629 36.7269 31.8629H26.0958C22.3891 31.8629 18.75 34.5977 18.75 38.2918V50.9028C18.75 54.4852 21.3343 57.1642 24.947 57.7651C24.8574 57.7738 27.5268 58.3099 29.7923 58.3012ZM37.1162 52.426C35.9099 52.426 34.9124 51.4316 34.9124 50.2199C34.9124 48.9963 35.9099 48.0196 37.1162 48.0196C38.3458 48.0196 39.3199 48.9949 39.3199 50.2199C39.3199 51.4272 38.3444 52.426 37.1162 52.426Z" fill="#FFC107"/>
</g>
</svg>
