<svg width="61" height="64" viewBox="0 0 61 64" fill="none" xmlns="http://www.w3.org/2000/svg">
<mask id="mask0_129_164" style="mask-type:luminance" maskUnits="userSpaceOnUse" x="4" y="1" width="53" height="62">
<path d="M4.8103 1.39886H56.0036V62.2151H4.8103V1.39886Z" fill="white"/>
</mask>
<g mask="url(#mask0_129_164)">
<path d="M9.45755 56.1159L4.79578 1.42682H56.018L51.3526 56.1083L30.3742 62.1884L9.45755 56.1159Z" fill="#E44D26"/>
</g>
<path d="M47.3568 52.6263L51.3452 5.89923H30.4069V57.5424L47.3568 52.6263Z" fill="#F16529"/>
<path d="M30.385 12.606H14.3263L16.0564 32.8895H30.4068V26.1827H21.9218L21.3353 19.3146H30.4068V12.606H30.385ZM30.4068 43.58L30.3796 43.5877L23.2379 41.5712L22.7841 36.222H16.3431L17.2418 46.7532L30.3777 50.5509L30.4068 50.5413V43.58Z" fill="#EBEBEB"/>
<path d="M30.385 32.8895H38.2818L37.5557 41.5863L30.4032 43.6047V50.583L43.55 46.7721L45.311 26.1789H30.4068L30.385 32.8895ZM46.2949 14.4061L46.4473 12.606H30.3813V19.3126H45.87L45.9972 17.8051L46.2949 14.4061Z" fill="white"/>
</svg>
